<!DOCTYPE svg PUBLIC "-//W3C//DTD SVG 20010904//EN" "http://www.w3.org/TR/2001/REC-SVG-20010904/DTD/svg10.dtd">
<svg version="1.0" xmlns="http://www.w3.org/2000/svg" width="150px" height="150px" viewBox="0 0 5320 2560" preserveAspectRatio="xMidYMid meet">
<g id="layer1" fill="current" stroke="none">
 <path d="M2886 2381 c-3 -4 -64 -12 -136 -16 -71 -4 -132 -10 -135 -15 -3 -4 -60 -11 -127 -15 -68 -4 -127 -11 -133 -15 -5 -4 -51 -10 -100 -13 -89 -6 -93 -8 -269 -96 -192 -96 -199 -102 -212 -188 -3 -27 -10 -52 -14 -58 -5 -5 -11 -32 -15 -60 -4 -27 -11 -54 -15 -60 -5 -5 -11 -32 -16 -60 -9 -62 -21 -74 -81 -81 -26 -3 -58 -11 -71 -17 -21 -10 -27 -7 -56 25 -18 20 -36 42 -40 49 -13 26 -31 55 -44 69 -7 8 -21 27 -33 42 -26 35 -171 108 -215 108 -18 0 -35 4 -38 9 -3 4 -46 11 -95 15 -87 6 -90 6 -156 -28 -38 -19 -71 -38 -74 -43 -3 -4 -36 -23 -73 -42 -72 -36 -64 -25 -148 -188 -14 -26 -29 -51 -33 -54 -5 -3 -14 -17 -21 -30 -50 -93 -80 -146 -90 -159 -22 -26 -56 -100 -56 -120 0 -10 -4 -21 -9 -25 -5 -3 -13 -31 -17 -63 -3 -31 -10 -61 -14 -67 -5 -5 -11 -32 -15 -60 -4 -27 -11 -54 -15 -60 -4 -5 -11 -38 -15 -73 -4 -34 -10 -64 -15 -67 -4 -3 -11 -31 -15 -62 -4 -32 -11 -63 -16 -69 -4 -6 -11 -37 -15 -70 -4 -32 -12 -65 -18 -73 -14 -18 -14 -183 1 -213 7 -13 14 -44 18 -70 7 -51 24 -68 69 -68 14 0 27 -4 31 -9 3 -6 26 -13 52 -17 25 -4 58 -13 72 -20 14 -8 37 -14 52 -14 14 0 30 -5 36 -11 16 -16 1394 -18 1414 -3 9 8 102 14 259 19 135 4 250 10 255 15 6 4 98 10 206 14 l195 6 281 140 c154 77 287 147 294 156 9 11 10 20 2 33 -6 9 -14 32 -18 51 -4 19 -11 41 -15 50 -4 8 -13 27 -19 43 -10 26 -13 27 -90 27 -57 0 -80 4 -84 14 -6 16 107 26 288 26 61 0 115 4 121 9 14 15 508 19 525 4 8 -6 37 -14 64 -18 28 -4 55 -11 60 -15 6 -5 33 -11 60 -15 28 -4 55 -11 60 -15 6 -5 32 -11 59 -15 27 -4 61 -14 75 -21 14 -8 33 -14 42 -14 14 0 56 -17 99 -39 9 -5 31 -12 50 -16 19 -4 41 -12 48 -18 18 -14 148 -19 262 -10 l95 8 10 50 c6 28 13 55 17 60 3 6 9 36 13 68 4 31 11 60 16 63 12 7 11 201 -1 209 -5 3 -31 8 -57 12 -38 4 -58 0 -93 -18 -52 -26 -108 -65 -130 -90 -8 -9 -35 -19 -59 -23 l-43 -7 -208 156 -208 156 -145 192 c-95 126 -236 292 -409 482 -267 294 -297 323 -378 366 -25 13 -48 28 -51 32 -23 32 -64 37 -295 37 -128 0 -235 -4 -238 -9z m-1121 -1501 c50 -50 66 -60 104 -66 25 -4 52 -12 60 -18 18 -14 951 -9 966 5 9 9 155 13 155 4 0 -11 -26 -50 -37 -58 -7 -4 -13 -14 -13 -20 0 -24 -58 -77 -84 -77 -14 0 -27 -4 -30 -9 -3 -4 -26 -11 -51 -14 -24 -4 -53 -10 -62 -15 -10 -5 -33 -16 -51 -25 -19 -9 -41 -17 -50 -17 -9 0 -30 -7 -46 -15 -15 -8 -36 -15 -45 -15 -9 0 -25 -6 -36 -14 -11 -7 -36 -17 -55 -21 -19 -4 -41 -11 -50 -15 -8 -4 -33 -16 -54 -26 -37 -18 -62 -19 -340 -16 -166 2 -305 7 -311 12 -5 4 -46 11 -90 15 -44 4 -84 11 -90 15 -5 4 -46 11 -90 15 -44 4 -84 11 -90 15 -5 4 -46 11 -90 15 -109 10 -140 32 -149 110 -3 31 -11 64 -17 74 -10 15 -4 25 40 69 63 63 96 78 186 87 39 4 75 10 80 15 6 4 41 10 80 14 38 4 74 11 80 16 6 5 31 10 55 13 25 2 50 4 55 5 6 1 37 -25 70 -58z"/>
 </g>

</svg>